<svg width="27" height="27" viewBox="0 0 27 27" fill="none" xmlns="http://www.w3.org/2000/svg">
<path d="M14.3626 0.901367C15.825 0.905267 16.5673 0.913067 17.2082 0.931266L17.4604 0.940365C17.7515 0.950765 18.0388 0.963764 18.3859 0.979363C19.769 1.04436 20.7128 1.26275 21.5409 1.58384C22.3988 1.91402 23.1216 2.3612 23.8444 3.08267C24.5056 3.73229 25.0171 4.51841 25.3432 5.38616C25.6643 6.21422 25.8827 7.15798 25.9477 8.54241C25.9633 8.8882 25.9763 9.17548 25.9867 9.46797L25.9945 9.72016C26.014 10.3597 26.0218 11.102 26.0244 12.5644L26.0257 13.5342V15.2371C26.0288 16.1853 26.0189 17.1335 25.9958 18.0814L25.988 18.3336C25.9776 18.626 25.9646 18.9133 25.949 19.2591C25.884 20.6436 25.663 21.586 25.3432 22.4154C25.0171 23.2831 24.5056 24.0692 23.8444 24.7189C23.1947 25.3801 22.4086 25.8916 21.5409 26.2177C20.7128 26.5388 19.769 26.7572 18.3859 26.8222L17.4604 26.8612L17.2082 26.869C16.5673 26.8872 15.825 26.8963 14.3626 26.8989L13.3928 26.9002H11.6912C10.7426 26.9035 9.79399 26.8935 8.84565 26.8703L8.59347 26.8625C8.28487 26.8508 7.97635 26.8373 7.66791 26.8222C6.28477 26.7572 5.34102 26.5388 4.51165 26.2177C3.64437 25.8915 2.85871 25.38 2.20946 24.7189C1.54772 24.0694 1.03576 23.2832 0.709331 22.4154C0.388246 21.5873 0.169856 20.6436 0.104859 19.2591L0.0658606 18.3336L0.0593611 18.0814C0.035398 17.1335 0.024564 16.1853 0.0268624 15.2371V12.5644C0.0232644 11.6163 0.0327983 10.6681 0.0554612 9.72016L0.0645608 9.46797C0.0749603 9.17548 0.0879596 8.8882 0.103559 8.54241C0.168556 7.15798 0.386946 6.21552 0.708031 5.38616C1.03522 4.51806 1.54808 3.7319 2.21076 3.08267C2.85963 2.42171 3.64484 1.91022 4.51165 1.58384C5.34102 1.26275 6.28347 1.04436 7.66791 0.979363C8.01369 0.963764 8.30228 0.950765 8.59347 0.940365L8.84565 0.932566C9.79356 0.909469 10.7417 0.899502 11.6899 0.902667L14.3626 0.901367ZM13.0263 7.40107C11.3024 7.40107 9.64921 8.08585 8.43028 9.30478C7.21135 10.5237 6.52656 12.1769 6.52656 13.9008C6.52656 15.6246 7.21135 17.2778 8.43028 18.4967C9.64921 19.7157 11.3024 20.4005 13.0263 20.4005C14.7501 20.4005 16.4033 19.7157 17.6222 18.4967C18.8412 17.2778 19.526 15.6246 19.526 13.9008C19.526 12.1769 18.8412 10.5237 17.6222 9.30478C16.4033 8.08585 14.7501 7.40107 13.0263 7.40107ZM13.0263 10.0009C13.5384 10.0009 14.0455 10.1016 14.5187 10.2976C14.9919 10.4935 15.4218 10.7806 15.784 11.1427C16.1462 11.5048 16.4336 11.9347 16.6296 12.4078C16.8257 12.8809 16.9266 13.388 16.9267 13.9001C16.9268 14.4122 16.826 14.9194 16.6301 15.3926C16.4342 15.8657 16.147 16.2957 15.785 16.6579C15.4229 17.0201 14.993 17.3074 14.5199 17.5035C14.0468 17.6995 13.5397 17.8005 13.0276 17.8006C11.9933 17.8006 11.0013 17.3897 10.27 16.6584C9.53861 15.927 9.12774 14.9351 9.12774 13.9008C9.12774 12.8665 9.53861 11.8745 10.27 11.1432C11.0013 10.4118 11.9933 10.0009 13.0276 10.0009M19.8522 5.45116C19.4213 5.45116 19.008 5.62235 18.7032 5.92709C18.3985 6.23182 18.2273 6.64512 18.2273 7.07608C18.2273 7.50704 18.3985 7.92034 18.7032 8.22508C19.008 8.52981 19.4213 8.70101 19.8522 8.70101C20.2832 8.70101 20.6965 8.52981 21.0012 8.22508C21.306 7.92034 21.4772 7.50704 21.4772 7.07608C21.4772 6.64512 21.306 6.23182 21.0012 5.92709C20.6965 5.62235 20.2832 5.45116 19.8522 5.45116Z" fill="white"/>
</svg>
