<svg width="26" height="26" viewBox="0 0 26 26" fill="none" xmlns="http://www.w3.org/2000/svg">
<path d="M22.9858 0.0961914C23.7406 0.0961914 24.4644 0.396006 24.9981 0.929678C25.5317 1.46335 25.8315 2.18717 25.8315 2.94189V22.8618C25.8315 23.6165 25.5317 24.3404 24.9981 24.874C24.4644 25.4077 23.7406 25.7075 22.9858 25.7075H3.06592C2.31119 25.7075 1.58737 25.4077 1.0537 24.874C0.520029 24.3404 0.220215 23.6165 0.220215 22.8618V2.94189C0.220215 2.18717 0.520029 1.46335 1.0537 0.929678C1.58737 0.396006 2.31119 0.0961914 3.06592 0.0961914H22.9858ZM22.2744 22.1504V14.6093C22.2744 13.3791 21.7857 12.1993 20.9158 11.3294C20.0459 10.4595 18.8661 9.97078 17.6359 9.97078C16.4265 9.97078 15.0179 10.7107 14.3349 11.8205V10.2411H10.3651V22.1504H14.3349V15.1357C14.3349 14.0401 15.2171 13.1437 16.3127 13.1437C16.841 13.1437 17.3476 13.3536 17.7212 13.7272C18.0948 14.1008 18.3047 14.6074 18.3047 15.1357V22.1504H22.2744ZM5.74088 8.00725C6.37485 8.00725 6.98286 7.7554 7.43114 7.30712C7.87943 6.85883 8.13127 6.25083 8.13127 5.61686C8.13127 4.2936 7.06413 3.21224 5.74088 3.21224C5.10313 3.21224 4.49151 3.46558 4.04056 3.91653C3.5896 4.36749 3.33626 4.97911 3.33626 5.61686C3.33626 6.94011 4.41763 8.00725 5.74088 8.00725ZM7.71864 22.1504V10.2411H3.77734V22.1504H7.71864Z" fill="white"/>
</svg>
