<svg width="10" height="12" viewBox="0 0 10 12" fill="none" xmlns="http://www.w3.org/2000/svg">
<path d="M5.32654 11.145C5.23134 11.2134 5.11708 11.2501 4.99987 11.2501C4.88266 11.2501 4.76841 11.2134 4.67321 11.145C1.85629 9.13717 -1.13329 5.00717 1.88896 2.02283C2.71866 1.20666 3.83603 0.749489 4.99987 0.75C6.16654 0.75 7.28596 1.20792 8.11079 2.02225C11.133 5.00658 8.14346 9.136 5.32654 11.145Z" stroke="white" stroke-width="0.875" stroke-linecap="round" stroke-linejoin="round"/>
<path d="M5.00041 5.99996C5.30983 5.99996 5.60657 5.87704 5.82536 5.65825C6.04416 5.43946 6.16707 5.14271 6.16707 4.83329C6.16707 4.52387 6.04416 4.22713 5.82536 4.00833C5.60657 3.78954 5.30983 3.66663 5.00041 3.66663C4.69099 3.66663 4.39424 3.78954 4.17545 4.00833C3.95666 4.22713 3.83374 4.52387 3.83374 4.83329C3.83374 5.14271 3.95666 5.43946 4.17545 5.65825C4.39424 5.87704 4.69099 5.99996 5.00041 5.99996Z" stroke="white" stroke-width="0.875" stroke-linecap="round" stroke-linejoin="round"/>
</svg>
