<svg width="52" height="20" viewBox="0 0 52 20" fill="none" xmlns="http://www.w3.org/2000/svg">
<g clip-path="url(#clip0_4012_20)">
<path d="M30.8355 5.33142C29.5639 4.05982 28.0543 3.05111 26.3929 2.36293C24.7315 1.67475 22.9508 1.32056 21.1525 1.32056C19.3542 1.32056 17.5735 1.67475 15.9121 2.36293C14.2507 3.05111 12.7411 4.05982 11.4695 5.33142L21.1525 15.0144L30.8355 5.33142Z" fill="white"/>
<path d="M21.1646 15.0284C22.4361 16.3 23.9457 17.3086 25.6072 17.9968C27.2685 18.685 29.0493 19.0392 30.8476 19.0392C32.6458 19.0392 34.4267 18.685 36.0881 17.9968C37.7494 17.3086 39.2592 16.3 40.5307 15.0284L30.8476 5.34534L21.1646 15.0284Z" fill="white"/>
<path d="M21.1407 15.0262C19.8691 16.2978 18.3595 17.3064 16.6981 17.9946C15.0367 18.6828 13.256 19.037 11.4577 19.037C9.65936 19.037 7.8787 18.6828 6.21727 17.9946C4.55588 17.3064 3.04625 16.2978 1.77466 15.0262L11.4577 5.34314L21.1407 15.0262Z" fill="white"/>
<path d="M30.8594 5.33357C32.1308 4.06198 33.6406 3.0533 35.3019 2.36513C36.9633 1.67695 38.7442 1.32275 40.5423 1.32275C42.3409 1.32275 44.1213 1.67695 45.7827 2.36513C47.444 3.0533 48.9538 4.06198 50.2253 5.33357L40.5423 15.0166L30.8594 5.33357Z" fill="white"/>
</g>
<defs>
<clipPath id="clip0_4012_20">
<rect width="50.5263" height="19.9324" fill="white" transform="translate(0.736816 0.0338135)"/>
</clipPath>
</defs>
</svg>
