<svg width="52" height="52" viewBox="0 0 52 52" fill="none" xmlns="http://www.w3.org/2000/svg">
<g clip-path="url(#clip0_4012_139)">
<path fill-rule="evenodd" clip-rule="evenodd" d="M13.3684 0.736816C20.3446 0.736816 26 6.39216 26 13.3684V0.736816H38.6316C45.6077 0.736816 51.2631 6.39216 51.2631 13.3684C51.2631 20.3446 45.6077 26 38.6316 26C45.6077 26 51.2631 31.6554 51.2631 38.6316C51.2631 42.0955 49.8687 45.2338 47.6107 47.5159L47.5635 47.5635L47.5215 47.6052C45.239 49.8665 42.0984 51.2631 38.6316 51.2631C35.1883 51.2631 32.0668 49.8854 29.7882 47.6511C29.7586 47.6221 29.7291 47.5928 29.6996 47.5635C29.672 47.5358 29.6444 47.508 29.617 47.4801C27.3799 45.2011 26 42.0775 26 38.6316C26 45.6077 20.3446 51.2631 13.3684 51.2631C6.39216 51.2631 0.736816 45.6077 0.736816 38.6316V26H13.3684C6.39216 26 0.736816 20.3446 0.736816 13.3684C0.736816 6.39216 6.39216 0.736816 13.3684 0.736816ZM23.4737 13.3684C23.4737 18.9494 18.9494 23.4737 13.3684 23.4737V3.26313C18.9494 3.26313 23.4737 7.78741 23.4737 13.3684ZM48.7368 38.6316C48.7368 33.0505 44.2126 28.5263 38.6316 28.5263C33.0505 28.5263 28.5263 33.0505 28.5263 38.6316H48.7368ZM3.26313 28.5263V38.6316C3.26313 44.2126 7.78741 48.7368 13.3684 48.7368C18.9494 48.7368 23.4737 44.2126 23.4737 38.6316V28.5263H3.26313ZM28.5263 23.4737V3.26313H38.6316C44.2126 3.26313 48.7368 7.78741 48.7368 13.3684C48.7368 18.9494 44.2126 23.4737 38.6316 23.4737H28.5263Z" fill="white"/>
</g>
<defs>
<clipPath id="clip0_4012_139">
<rect width="50.5263" height="50.5263" fill="white" transform="translate(0.736816 0.736816)"/>
</clipPath>
</defs>
</svg>
