<svg width="52" height="50" viewBox="0 0 52 50" fill="none" xmlns="http://www.w3.org/2000/svg">
<path d="M2.78308 30.4548C2.78308 28.1244 3.24208 25.8167 4.13392 23.6638C5.02577 21.5106 6.33292 19.5543 7.98082 17.9065C9.62871 16.2586 11.585 14.9514 13.738 14.0595C15.8911 13.1678 18.1988 12.7087 20.5293 12.7087V30.4548H2.78308Z" fill="white"/>
<path d="M2.78308 30.4546C2.78308 32.7851 3.24208 35.0927 4.13392 37.2458C5.02577 39.3989 6.33292 41.3552 7.98082 43.0031C9.62871 44.6509 11.585 45.9581 13.738 46.85C15.8911 47.7418 18.1988 48.2008 20.5293 48.2008V30.4546H2.78308Z" fill="white"/>
<path d="M38.275 30.4546C38.275 32.7851 37.8164 35.0927 36.9247 37.2458C36.0328 39.3989 34.7257 41.3552 33.0775 43.0031C31.4297 44.6509 29.4734 45.9581 27.3202 46.85C25.1673 47.7418 22.8596 48.2008 20.5292 48.2008V30.4546H38.275Z" fill="white"/>
<path d="M49.2169 15.1236C49.2169 22.4825 43.2511 28.4481 35.8923 28.4481H22.5679V15.1236C22.5679 7.76468 28.5335 1.79907 35.8923 1.79907C43.2511 1.79907 49.2169 7.76468 49.2169 15.1236Z" fill="white"/>
</svg>
