<svg width="52" height="52" viewBox="0 0 52 52" fill="none" xmlns="http://www.w3.org/2000/svg">
<g clip-path="url(#clip0_4012_490)">
<path d="M51.1931 27.8947H42.1683C34.2851 27.8947 27.8947 34.2853 27.8947 42.1684V51.1932C40.3366 50.2705 50.2705 40.3367 51.1931 27.8947Z" fill="white"/>
<path d="M24.106 51.1932V42.1684C24.106 34.2853 17.7154 27.8947 9.83225 27.8947H0.807495C1.73002 40.3367 11.664 50.2705 24.106 51.1932Z" fill="white"/>
<path d="M51.1931 24.1052C50.2705 11.6632 40.3366 1.72923 27.8947 0.806702V9.83145C27.8947 17.7146 34.2851 24.1052 42.1683 24.1052H51.1931Z" fill="white"/>
<path d="M24.106 0.806702C11.664 1.72923 1.73002 11.6632 0.807495 24.1052H9.83225C17.7154 24.1052 24.106 17.7146 24.106 9.83145V0.806702Z" fill="white"/>
<path d="M17.8939 25.9999C21.396 24.2501 24.2501 21.396 25.9999 17.8939C27.7497 21.396 30.6037 24.2501 34.1059 25.9999C30.6037 27.7496 27.7497 30.6038 25.9999 34.1059C24.2501 30.6038 21.396 27.7496 17.8939 25.9999Z" fill="white"/>
</g>
<defs>
<clipPath id="clip0_4012_490">
<rect width="50.5263" height="50.5263" fill="white" transform="translate(0.736816 0.736816)"/>
</clipPath>
</defs>
</svg>
