<svg width="52" height="50" viewBox="0 0 52 50" fill="none" xmlns="http://www.w3.org/2000/svg">
<path d="M25.9999 13.3995C25.9999 19.8062 20.8062 24.9999 14.3995 24.9999H2.79907V13.3995C2.79907 6.99275 7.99275 1.79907 14.3995 1.79907C20.8062 1.79907 25.9999 6.99275 25.9999 13.3995Z" fill="white"/>
<path d="M26 36.6004C26 30.1937 31.1937 25 37.6004 25H49.2009V36.6004C49.2009 43.0072 44.0072 48.2009 37.6004 48.2009C31.1937 48.2009 26 43.0072 26 36.6004Z" fill="white"/>
<path d="M2.79907 36.6004C2.79907 43.0072 7.99275 48.2009 14.3995 48.2009H25.9999V36.6004C25.9999 30.1937 20.8062 25 14.3995 25C7.99275 25 2.79907 30.1937 2.79907 36.6004Z" fill="white"/>
<path d="M49.2009 13.3995C49.2009 6.99275 44.0072 1.79907 37.6004 1.79907H26V13.3995C26 19.8062 31.1937 24.9999 37.6004 24.9999C44.0072 24.9999 49.2009 19.8062 49.2009 13.3995Z" fill="white"/>
</svg>
