<svg width="52" height="52" viewBox="0 0 52 52" fill="none" xmlns="http://www.w3.org/2000/svg">
<g clip-path="url(#clip0_4012_51)">
<path fill-rule="evenodd" clip-rule="evenodd" d="M18.0605 0.757202C15.2103 0.757202 12.477 1.88942 10.4616 3.90477L0.736816 13.6295V18.0809C0.736816 21.2258 2.08769 24.0551 4.24083 26.0203C2.08769 27.9856 0.736816 30.8149 0.736816 33.9598V38.4112L10.4616 48.136C12.477 50.1513 15.2103 51.2835 18.0605 51.2835C21.2054 51.2835 24.0348 49.9327 26 47.7795C27.9652 49.9327 30.7945 51.2835 33.9394 51.2835C36.7896 51.2835 39.523 50.1513 41.5383 48.136L51.2631 38.4112V33.9598C51.2631 30.8149 49.9123 27.9856 47.7591 26.0203C49.9123 24.0551 51.2631 21.2258 51.2631 18.0809V13.6295L41.5383 3.90477C39.523 1.88942 36.7896 0.757202 33.9394 0.757202C30.7945 0.757202 27.9652 2.10807 26 4.26121C24.0348 2.10807 21.2054 0.757202 18.0605 0.757202ZM33.2743 26.0203C33.1531 25.9098 33.0343 25.7963 32.9178 25.6798L26 18.762L19.0822 25.6798C18.9657 25.7963 18.8468 25.9098 18.7257 26.0203C18.8468 26.1309 18.9657 26.2444 19.0822 26.3609L26 33.2787L32.9178 26.3609C33.0343 26.2444 33.1531 26.1309 33.2743 26.0203ZM28.807 38.4112V40.5371C28.807 43.3716 31.1049 45.6695 33.9394 45.6695C35.3006 45.6695 36.6061 45.1288 37.5686 44.1662L45.6492 36.0857V33.9598C45.6492 31.1253 43.3512 28.8273 40.5167 28.8273C39.1555 28.8273 37.85 29.3681 36.8875 30.3306L28.807 38.4112ZM23.193 38.4112L15.1124 30.3306C14.1499 29.3681 12.8445 28.8273 11.4833 28.8273C8.64872 28.8273 6.35085 31.1253 6.35085 33.9598V36.0857L14.4313 44.1662C15.3939 45.1288 16.6993 45.6695 18.0605 45.6695C20.895 45.6695 23.193 43.3716 23.193 40.5371V38.4112ZM23.193 11.5037V13.6295L15.1124 21.7101C14.1499 22.6726 12.8445 23.2134 11.4833 23.2134C8.64872 23.2134 6.35085 20.9154 6.35085 18.0809V15.955L14.4313 7.87449C15.3939 6.91197 16.6993 6.37124 18.0605 6.37124C20.895 6.37124 23.193 8.6691 23.193 11.5037ZM36.8875 21.7101L28.807 13.6295V11.5037C28.807 8.6691 31.1049 6.37124 33.9394 6.37124C35.3006 6.37124 36.6061 6.91197 37.5686 7.87449L45.6492 15.955V18.0809C45.6492 20.9154 43.3512 23.2134 40.5167 23.2134C39.1555 23.2134 37.85 22.6726 36.8875 21.7101Z" fill="white"/>
</g>
<defs>
<clipPath id="clip0_4012_51">
<rect width="50.5263" height="51.7895" fill="white" transform="translate(0.736816 0.105286)"/>
</clipPath>
</defs>
</svg>
