<svg width="52" height="34" viewBox="0 0 52 34" fill="none" xmlns="http://www.w3.org/2000/svg">
<path d="M33.1759 16.654C33.1759 25.2548 26.2035 32.2272 17.6027 32.2272C9.00193 32.2272 2.02954 25.2548 2.02954 16.654C2.02954 8.05317 9.00193 1.08081 17.6027 1.08081C26.2035 1.08081 33.1759 8.05317 33.1759 16.654Z" fill="white"/>
<path d="M49.9704 16.654C49.9704 25.2548 43.0663 32.2272 34.5499 32.2272C26.0334 32.2272 19.1294 25.2548 19.1294 16.654C19.1294 8.05317 26.0334 1.08081 34.5499 1.08081C43.0663 1.08081 49.9704 8.05317 49.9704 16.654Z" fill="white"/>
<path d="M26.1179 29.695C30.368 26.9142 33.1758 22.1121 33.1758 16.654C33.1758 11.196 30.368 6.39378 26.1179 3.61304C21.9097 6.39378 19.1294 11.196 19.1294 16.654C19.1294 22.1121 21.9097 26.9142 26.1179 29.695Z" fill="#FF9000"/>
</svg>
