<svg width="52" height="34" viewBox="0 0 52 34" fill="none" xmlns="http://www.w3.org/2000/svg">
<path d="M33.1759 16.6539C33.1759 25.2547 26.2035 32.227 17.6027 32.227C9.00193 32.227 2.02954 25.2547 2.02954 16.6539C2.02954 8.05304 9.00193 1.08069 17.6027 1.08069C26.2035 1.08069 33.1759 8.05304 33.1759 16.6539Z" fill="white"/>
<path d="M49.9704 16.6539C49.9704 25.2547 43.0663 32.227 34.5499 32.227C26.0334 32.227 19.1294 25.2547 19.1294 16.6539C19.1294 8.05304 26.0334 1.08069 34.5499 1.08069C43.0663 1.08069 49.9704 8.05304 49.9704 16.6539Z" fill="white"/>
<path d="M26.1179 29.6949C30.368 26.9141 33.1758 22.112 33.1758 16.6539C33.1758 11.1959 30.368 6.39366 26.1179 3.61292C21.9097 6.39366 19.1294 11.1959 19.1294 16.6539C19.1294 22.112 21.9097 26.9141 26.1179 29.6949Z" fill="#5D2C02"/>
</svg>
