<svg width="52" height="36" viewBox="0 0 52 36" fill="none" xmlns="http://www.w3.org/2000/svg">
<g clip-path="url(#clip0_4012_108)">
<path fill-rule="evenodd" clip-rule="evenodd" d="M2.05258 11.2325C0.744292 14.4639 0.401982 18.0196 1.06899 21.4501C1.73592 24.8804 3.38222 28.0315 5.79958 30.5046C8.21693 32.9778 11.2969 34.6621 14.6499 35.3444C18.003 36.0268 21.4785 35.6765 24.637 34.3381C27.7954 32.9996 30.4951 30.7329 32.3943 27.8248C32.445 27.7473 32.495 27.6694 32.5444 27.591C32.5793 27.5358 32.6139 27.4803 32.6482 27.4246V35.6842H33.9778C37.3966 35.6842 40.7385 34.647 43.581 32.7038C46.4236 30.7608 48.6391 27.9988 49.9473 24.7674C51.2557 21.5361 51.598 17.9804 50.9309 14.5499C50.264 11.1196 48.6178 7.96854 46.2004 5.4954C43.783 3.02218 40.703 1.33796 37.3501 0.655638C33.9969 -0.0267657 30.5215 0.323445 27.3629 1.66193C24.2045 3.00042 21.5049 5.26707 19.6056 8.17519C19.5192 8.30754 19.4346 8.44105 19.3517 8.57547V0.315806H18.0221C14.6034 0.315806 11.2615 1.35299 8.41894 3.29617C5.5764 5.23926 3.36089 8.00116 2.05258 11.2325ZM16.6925 18V3.09839C14.269 3.32473 11.9315 4.16713 9.89635 5.55824C7.4911 7.20244 5.6165 9.5395 4.50946 12.2737C3.40243 15.008 3.11279 18.0166 3.67714 20.9193C4.2415 23.8219 5.63452 26.4882 7.67994 28.5808C9.72545 30.6735 12.3316 32.0986 15.1688 32.676C18.006 33.2534 20.9467 32.9571 23.6193 31.8245C26.1845 30.7374 28.392 28.9268 29.9864 26.6072C28.778 27.194 27.4265 27.5223 26 27.5223C20.8597 27.5223 16.6925 23.2589 16.6925 18ZM35.3074 32.9016V18C35.3074 12.741 31.1403 8.47774 26 8.47774C24.5735 8.47774 23.2219 8.80604 22.0136 9.39287C23.6079 7.07317 25.8154 5.2625 28.3807 4.1755C31.0532 3.04293 33.994 2.7466 36.8312 3.32398C39.6684 3.90135 42.2745 5.32652 44.3201 7.41914C46.3655 9.51185 47.7585 12.1781 48.3228 15.0807C48.8871 17.9835 48.5975 20.992 47.4905 23.7263C46.3836 26.4605 44.5089 28.7976 42.1036 30.4417C40.0685 31.8328 37.7309 32.6752 35.3074 32.9016ZM25.867 24.8003C22.3008 24.7287 19.4231 21.7844 19.3531 18.136H21.8683C23.8525 18.5987 25.4145 20.1966 25.867 22.2267V24.8003ZM26.1329 24.8003C29.699 24.7287 32.5769 21.7844 32.6468 18.136H30.1316C28.1472 18.5987 26.5852 20.1969 26.1329 22.2272V24.8003ZM32.6468 17.864C32.5769 14.2156 29.699 11.2713 26.1329 11.1997V13.7728C26.5852 15.803 28.1471 17.4011 30.1313 17.864H32.6468ZM25.867 11.1997C22.3009 11.2713 19.4231 14.2156 19.3531 17.864H21.8687C23.8527 17.4011 25.4146 15.8032 25.867 13.7734V11.1997Z" fill="white"/>
</g>
<defs>
<clipPath id="clip0_4012_108">
<rect width="50.5263" height="35.3684" fill="white" transform="translate(0.736816 0.315796)"/>
</clipPath>
</defs>
</svg>
