<svg width="52" height="52" viewBox="0 0 52 52" fill="none" xmlns="http://www.w3.org/2000/svg">
<g clip-path="url(#clip0_4012_585)">
<path fill-rule="evenodd" clip-rule="evenodd" d="M33.0177 15.4972C30.9404 14.1092 28.4982 13.3684 26 13.3684V0.736816C30.9965 0.736816 35.8809 2.21848 40.0354 4.99443C44.19 7.77037 47.4279 11.7159 49.3401 16.3321C51.2521 20.9484 51.7525 26.028 50.7777 30.9286C49.8029 35.8291 47.3969 40.3306 43.8637 43.8637C40.3306 47.3969 35.8291 49.8029 30.9286 50.7777C26.028 51.7525 20.9484 51.2521 16.3321 49.3401C11.7159 47.4279 7.77037 44.19 4.99443 40.0354C2.21848 35.8809 0.736816 30.9965 0.736816 26H13.3684C13.3684 28.4982 14.1092 30.9404 15.4972 33.0177C16.8852 35.095 18.858 36.714 21.1661 37.67C23.4742 38.6261 26.014 38.8762 28.4643 38.3888C30.9145 37.9015 33.1652 36.6984 34.9319 34.9319C36.6984 33.1652 37.9015 30.9145 38.3888 28.4643C38.8762 26.014 38.6261 23.4742 37.67 21.1661C36.714 18.858 35.095 16.8852 33.0177 15.4972Z" fill="white"/>
<path fill-rule="evenodd" clip-rule="evenodd" d="M13.3684 0.736822C13.3684 2.39563 13.0417 4.03819 12.4069 5.57071C11.7721 7.10325 10.8416 8.49574 9.66869 9.6687C8.49575 10.8417 7.10325 11.7721 5.57071 12.4069C4.03817 13.0417 2.39561 13.3684 0.736817 13.3684L0.736816 26C4.05442 26 7.33954 25.3465 10.4046 24.0769C13.4697 22.8073 16.2547 20.9465 18.6005 18.6005C20.9465 16.2547 22.8073 13.4697 24.0769 10.4046C25.3465 7.33954 26 4.05442 26 0.736816L13.3684 0.736822Z" fill="white"/>
</g>
<defs>
<clipPath id="clip0_4012_585">
<rect width="50.5263" height="50.5263" fill="white" transform="translate(0.736816 0.736816)"/>
</clipPath>
</defs>
</svg>
