<svg width="25" height="25" viewBox="0 0 25 25" fill="none" xmlns="http://www.w3.org/2000/svg">
<path fill-rule="evenodd" clip-rule="evenodd" d="M11.8097 4.5788C7.87466 4.5788 4.68469 7.76877 4.68469 11.7038C4.68469 15.6388 7.87466 18.8288 11.8097 18.8288C15.7447 18.8288 18.9347 15.6388 18.9347 11.7038C18.9347 7.76877 15.7447 4.5788 11.8097 4.5788ZM3.18469 11.7038C3.18469 6.94034 7.04624 3.0788 11.8097 3.0788C16.5731 3.0788 20.4347 6.94034 20.4347 11.7038C20.4347 16.4673 16.5731 20.3288 11.8097 20.3288C7.04624 20.3288 3.18469 16.4673 3.18469 11.7038Z" fill="#FF9000"/>
<path fill-rule="evenodd" clip-rule="evenodd" d="M16.8481 16.7422C17.141 16.4493 17.6159 16.4493 17.9087 16.7422L22.465 21.2985C22.7579 21.5914 22.7579 22.0662 22.465 22.3591C22.1721 22.652 21.6972 22.652 21.4043 22.3591L16.8481 17.8029C16.5552 17.51 16.5552 17.0351 16.8481 16.7422Z" fill="#FF9000"/>
</svg>
