<svg width="25" height="25" viewBox="0 0 25 25" fill="none" xmlns="http://www.w3.org/2000/svg">
<path fill-rule="evenodd" clip-rule="evenodd" d="M5.43457 22.5788C5.43457 22.1646 5.77036 21.8288 6.18457 21.8288H19.6846C20.0988 21.8288 20.4346 22.1646 20.4346 22.5788C20.4346 22.993 20.0988 23.3288 19.6846 23.3288H6.18457C5.77036 23.3288 5.43457 22.993 5.43457 22.5788Z" fill="#FF9000"/>
<path fill-rule="evenodd" clip-rule="evenodd" d="M12.9346 8.3288C11.6919 8.3288 10.6846 9.33616 10.6846 10.5788C10.6846 11.8214 11.6919 12.8288 12.9346 12.8288C14.1772 12.8288 15.1846 11.8214 15.1846 10.5788C15.1846 9.33616 14.1772 8.3288 12.9346 8.3288ZM9.18457 10.5788C9.18457 8.50773 10.8635 6.8288 12.9346 6.8288C15.0056 6.8288 16.6846 8.50773 16.6846 10.5788C16.6846 12.6499 15.0056 14.3288 12.9346 14.3288C10.8635 14.3288 9.18457 12.6499 9.18457 10.5788Z" fill="#FF9000"/>
<path fill-rule="evenodd" clip-rule="evenodd" d="M12.9346 3.8288C11.1444 3.8288 9.42747 4.53995 8.1616 5.80583C6.89573 7.0717 6.18457 8.78858 6.18457 10.5788C6.18457 13.6838 7.91846 16.511 9.75052 18.6179C10.6574 19.6608 11.5662 20.5017 12.2484 21.0816C12.5182 21.3109 12.7517 21.4987 12.9346 21.6413C13.1174 21.4987 13.3509 21.3109 13.6207 21.0816C14.3029 20.5017 15.2117 19.6608 16.1186 18.6179C17.9507 16.511 19.6846 13.6838 19.6846 10.5788C19.6846 8.78858 18.9734 7.0717 17.7075 5.80583C16.4417 4.53995 14.7248 3.8288 12.9346 3.8288ZM12.9346 22.5788C12.5045 23.1932 12.5043 23.1931 12.504 23.1929L12.5034 23.1925L12.5016 23.1912L12.4961 23.1873L12.477 23.1738C12.4608 23.1622 12.4377 23.1455 12.4081 23.124C12.349 23.0808 12.264 23.0178 12.1569 22.9359C11.9427 22.7722 11.6395 22.5326 11.277 22.2245C10.5529 21.6091 9.58674 20.7155 8.61862 19.6022C6.70069 17.3966 4.68457 14.2238 4.68457 10.5788C4.68457 8.39076 5.55376 6.29234 7.10094 4.74517C8.64811 3.19799 10.7465 2.3288 12.9346 2.3288C15.1226 2.3288 17.221 3.19799 18.7682 4.74517C20.3154 6.29234 21.1846 8.39076 21.1846 10.5788C21.1846 14.2238 19.1685 17.3966 17.2505 19.6022C16.2824 20.7155 15.3162 21.6091 14.5922 22.2245C14.2297 22.5326 13.9265 22.7722 13.7123 22.9359C13.6051 23.0178 13.5201 23.0808 13.461 23.124C13.4314 23.1455 13.4083 23.1622 13.3921 23.1738L13.373 23.1873L13.3675 23.1912L13.3657 23.1925L13.3651 23.1929C13.3649 23.1931 13.3647 23.1932 12.9346 22.5788ZM12.9346 22.5788L13.3647 23.1932C13.1064 23.374 12.7627 23.374 12.5045 23.1932L12.9346 22.5788Z" fill="#FF9000"/>
</svg>
