<svg width="22" height="14" viewBox="0 0 22 14" fill="none" xmlns="http://www.w3.org/2000/svg">
<path d="M6.69287 0.175781C8.41678 0.175781 10.0701 0.884342 11.2891 2.14559C12.5081 3.40683 13.1929 5.11745 13.1929 6.90112C13.1929 8.68479 12.5081 10.3954 11.2891 11.6567C10.0701 12.9179 8.41678 13.6265 6.69287 13.6265C4.96896 13.6265 3.31566 12.9179 2.09668 11.6567C0.87769 10.3954 0.192871 8.68479 0.192871 6.90112C0.192871 5.11745 0.87769 3.40683 2.09668 2.14559C3.31566 0.884342 4.96896 0.175781 6.69287 0.175781ZM16.4429 1.29667C18.0679 1.29667 19.1512 3.80634 19.1512 6.90112C19.1512 9.9959 18.0679 12.5056 16.4429 12.5056C14.8179 12.5056 13.7345 9.9959 13.7345 6.90112C13.7345 3.80634 14.8179 1.29667 16.4429 1.29667ZM20.7762 1.85712C21.1879 1.85712 21.5475 2.78409 21.7295 4.37464L21.7805 4.87119L21.801 5.1346L21.8335 5.68832L21.8444 5.97863L21.8574 6.58503L21.8595 6.90112L21.8574 7.21721L21.8444 7.82362L21.8335 8.11505L21.801 8.66765L21.7794 8.93106L21.7306 9.42761C21.5475 11.0193 21.189 11.9451 20.7762 11.9451C20.3645 11.9451 20.0049 11.0182 19.8229 9.42761L19.772 8.93106L19.7514 8.66765L19.7189 8.11393L19.708 7.82362L19.695 7.21721V6.58503L19.708 5.97863L19.7189 5.6872L19.7514 5.1346L19.773 4.87119L19.8218 4.37464C20.0049 2.78297 20.3635 1.85712 20.7762 1.85712Z" fill="white"/>
</svg>
