<svg width="18" height="22" viewBox="0 0 18 22" fill="none" xmlns="http://www.w3.org/2000/svg">
<path d="M14.0096 3.71689C13.2693 2.80954 12.8612 1.64451 12.8613 0.438477H9.51379V14.8542C9.48851 15.6345 9.18177 16.3737 8.65829 16.916C8.13481 17.4582 7.43552 17.761 6.70796 17.7606C5.16963 17.7606 3.89129 16.412 3.89129 14.7379C3.89129 12.7383 5.68963 11.2386 7.54213 11.8548V8.18111C3.80463 7.64633 0.532959 10.762 0.532959 14.7379C0.532959 18.6092 3.52296 21.3645 6.69713 21.3645C10.0988 21.3645 12.8613 18.4 12.8613 14.7379V7.42544C14.2187 8.47157 15.8484 9.03285 17.5196 9.02977V5.43747C17.5196 5.43747 15.483 5.5421 14.0096 3.71689Z" fill="white"/>
</svg>
