<svg width="26" height="19" viewBox="0 0 26 19" fill="none" xmlns="http://www.w3.org/2000/svg">
<path d="M10.3118 13.7585L16.9847 9.90137L10.3118 6.04422V13.7585ZM25.1747 3.69137C25.3418 4.29565 25.4576 5.10565 25.5347 6.13422C25.6247 7.1628 25.6633 8.04994 25.6633 8.82137L25.7404 9.90137C25.7404 12.7171 25.5347 14.7871 25.1747 16.1114C24.8533 17.2685 24.1076 18.0142 22.9504 18.3357C22.3461 18.5028 21.2404 18.6185 19.5433 18.6957C17.8718 18.7857 16.3418 18.8242 14.9276 18.8242L12.8833 18.9014C7.49612 18.9014 4.14041 18.6957 2.81612 18.3357C1.65898 18.0142 0.913266 17.2685 0.591837 16.1114C0.424695 15.5071 0.30898 14.6971 0.231837 13.6685C0.141837 12.6399 0.103266 11.7528 0.103266 10.9814L0.026123 9.90137C0.026123 7.08565 0.231837 5.01565 0.591837 3.69137C0.913266 2.53422 1.65898 1.78851 2.81612 1.46708C3.42041 1.29994 4.52612 1.18422 6.22327 1.10708C7.89469 1.01708 9.42469 0.97851 10.839 0.97851L12.8833 0.901367C18.2704 0.901367 21.6261 1.10708 22.9504 1.46708C24.1076 1.78851 24.8533 2.53422 25.1747 3.69137Z" fill="white"/>
</svg>
