<svg width="52" height="52" viewBox="0 0 52 52" fill="none" xmlns="http://www.w3.org/2000/svg">
<g clip-path="url(#clip0_4012_404)">
<path d="M51.2631 26C51.2631 39.9524 39.9524 51.2631 26 51.2631C12.0475 51.2631 0.736816 39.9524 0.736816 26C0.736816 12.0475 12.0475 0.736816 26 0.736816C39.9524 0.736816 51.2631 12.0475 51.2631 26Z" fill="#1D2633"/>
<path d="M44.7665 32.4504C45.6197 32.4504 46.2265 33.2796 45.9056 34.0701C42.7158 41.9304 35.0052 47.4736 26 47.4736C16.9948 47.4736 9.28422 41.9304 6.09433 34.0701C5.7735 33.2796 6.38034 32.4504 7.23349 32.4504H44.7665Z" fill="#EDEBDE"/>
<path d="M45.9056 17.9297C46.2265 18.7203 45.6196 19.5494 44.7665 19.5494H7.23348C6.38033 19.5494 5.77351 18.7203 6.09432 17.9297C9.28421 10.0694 16.9948 4.52625 26 4.52625C35.0052 4.52625 42.7157 10.0694 45.9056 17.9297Z" fill="#EDEBDE"/>
<path d="M44.8444 24.2C46.2637 24.2 46.9486 25.1901 46.9486 26.3371V28.4908H45.4633V26.5929C45.4633 26.0731 45.2735 25.644 44.7289 25.644C44.1843 25.644 44.0028 26.0731 44.0028 26.5929V28.4908H42.5175V26.5929C42.5175 26.0731 42.3359 25.644 41.7913 25.644C41.2467 25.644 41.0569 26.0731 41.0569 26.5929V28.4908H39.5717V26.3371C39.5717 25.1901 40.2565 24.2 41.6758 24.2C42.4515 24.2 43.0126 24.5053 43.2683 25.0086C43.5407 24.5053 44.1348 24.2 44.8444 24.2Z" fill="#EDEBDE"/>
<path d="M36.9028 27.1705C37.3814 27.1705 37.5877 26.7332 37.5877 26.2134V24.365H39.0729V26.3949C39.0729 27.6078 38.3633 28.6146 36.9028 28.6146C35.4422 28.6146 34.7327 27.6078 34.7327 26.3949V24.365H36.2179V26.2134C36.2179 26.7332 36.4242 27.1705 36.9028 27.1705Z" fill="#EDEBDE"/>
<path d="M32.5486 28.6227C31.6162 28.6227 31.0138 28.3009 30.6591 27.6738L31.7317 27.0714C31.8803 27.3355 32.103 27.4675 32.4743 27.4675C32.7796 27.4675 32.9199 27.3602 32.9199 27.2282C32.9199 26.7249 30.7415 27.2364 30.7415 25.6356C30.7415 24.86 31.4017 24.2329 32.5239 24.2329C33.5058 24.2329 34.0422 24.7115 34.2815 25.1736L33.2087 25.7842C33.118 25.5366 32.8374 25.3881 32.5569 25.3881C32.3423 25.3881 32.2268 25.4789 32.2268 25.6027C32.2268 26.1143 34.4052 25.6439 34.4052 27.1952C34.4052 28.0616 33.5554 28.6227 32.5486 28.6227Z" fill="#EDEBDE"/>
<path d="M27.3594 30.3886H25.8741V26.4197C25.8741 25.1572 26.8231 24.2412 28.1433 24.2412C29.4306 24.2412 30.4125 25.2232 30.4125 26.4197C30.4125 27.7399 29.5379 28.6146 28.2258 28.6146C27.9205 28.6146 27.6152 28.5238 27.3594 28.3835V30.3886ZM28.1433 27.2201C28.6137 27.2201 28.9272 26.857 28.9272 26.4279C28.9272 25.9906 28.6137 25.6357 28.1433 25.6357C27.673 25.6357 27.3594 25.9906 27.3594 26.4279C27.3594 26.857 27.673 27.2201 28.1433 27.2201Z" fill="#EDEBDE"/>
<path d="M24.3863 23.9276C23.8995 23.9276 23.4951 23.5233 23.4951 23.0365C23.4951 22.5496 23.8995 22.1453 24.3863 22.1453C24.8732 22.1453 25.2775 22.5496 25.2775 23.0365C25.2775 23.5233 24.8732 23.9276 24.3863 23.9276ZM23.6437 24.3649H25.1289V28.4907H23.6437V24.3649Z" fill="#EDEBDE"/>
<path d="M20.794 28.6145C19.5068 28.6145 18.5248 27.6243 18.5248 26.4196C18.5248 25.2231 19.5068 24.2329 20.794 24.2329C22.0812 24.2329 23.0632 25.2231 23.0632 26.4196C23.0632 27.6243 22.0812 28.6145 20.794 28.6145ZM20.794 27.22C21.2643 27.22 21.5779 26.8569 21.5779 26.4278C21.5779 25.9905 21.2643 25.6274 20.794 25.6274C20.3236 25.6274 20.0101 25.9905 20.0101 26.4278C20.0101 26.8569 20.3236 27.22 20.794 27.22Z" fill="#EDEBDE"/>
<path d="M15.7202 30.5124C14.697 30.5124 13.9544 30.0586 13.5748 29.2499L14.8043 28.5898C14.9363 28.8704 15.1839 29.1592 15.6955 29.1592C16.2318 29.1592 16.5866 28.8209 16.6279 28.2267C16.4299 28.4 16.1163 28.532 15.646 28.532C14.499 28.532 13.5748 27.6491 13.5748 26.4114C13.5748 25.2149 14.5567 24.2412 15.844 24.2412C17.1642 24.2412 18.1132 25.1572 18.1132 26.4197V28.0535C18.1132 29.5387 17.0817 30.5124 15.7202 30.5124ZM15.8193 27.1375C16.2649 27.1375 16.6031 26.8322 16.6031 26.3784C16.6031 25.9328 16.2649 25.6357 15.8193 25.6357C15.3819 25.6357 15.0354 25.9328 15.0354 26.3784C15.0354 26.8322 15.3819 27.1375 15.8193 27.1375Z" fill="#EDEBDE"/>
<path d="M11.0552 28.6145C9.76799 28.6145 8.78601 27.6243 8.78601 26.4196C8.78601 25.2231 9.76799 24.2329 11.0552 24.2329C12.3424 24.2329 13.3244 25.2231 13.3244 26.4196C13.3244 27.6243 12.3424 28.6145 11.0552 28.6145ZM11.0552 27.22C11.5255 27.22 11.8391 26.8569 11.8391 26.4278C11.8391 25.9905 11.5255 25.6274 11.0552 25.6274C10.5849 25.6274 10.2713 25.9905 10.2713 26.4278C10.2713 26.8569 10.5849 27.22 11.0552 27.22Z" fill="#EDEBDE"/>
<path d="M6.08134 22.921V27.0881H8.54028V28.4908H5.87506C4.93438 28.4908 4.55481 27.9957 4.55481 27.2118V22.921H6.08134Z" fill="#EDEBDE"/>
<path d="M22.2104 4.85955C23.4406 4.64053 24.7069 4.52625 26 4.52625C27.293 4.52625 28.5593 4.64053 29.7894 4.85955V19.5494H22.2104V4.85955Z" fill="#AC2828"/>
<path d="M29.7896 32.4504H22.21C22.1941 35.746 21.5936 39.0129 20.4363 42.0993L18.8748 46.2633C21.1043 47.0472 23.5023 47.4736 25.9999 47.4736C28.4974 47.4736 30.8953 47.0472 33.1249 46.2633L31.5634 42.0993C30.406 39.0129 29.8056 35.746 29.7896 32.4504Z" fill="#AC2828"/>
<path d="M29.7894 4.85962C32.531 5.34776 35.0926 6.35615 37.3684 7.77909V19.5495H29.7894V4.85962Z" fill="#306A9F"/>
<path d="M33.125 46.2633C36.5718 45.0513 39.6162 42.9849 42.0037 40.3181L41.6311 40.081C39.0141 38.4156 37.4145 35.5461 37.3694 32.4504H29.7898C29.8057 35.746 30.4062 39.0129 31.5636 42.0993L33.125 46.2633Z" fill="#306A9F"/>
<path d="M14.6315 7.77909C16.9072 6.35616 19.4688 5.34776 22.2104 4.85962V19.5495H14.6315V7.77909Z" fill="#DEB038"/>
<path d="M14.6304 32.4504H22.21C22.1942 35.7319 21.5988 38.9849 20.4511 42.0597L18.8748 46.2633C15.4279 45.0513 12.3837 42.9849 9.99609 40.3181L10.3687 40.081C12.9857 38.4156 14.5853 35.5461 14.6304 32.4504Z" fill="#DEB038"/>
</g>
<defs>
<clipPath id="clip0_4012_404">
<rect width="50.5263" height="50.5263" fill="white" transform="translate(0.736816 0.736816)"/>
</clipPath>
</defs>
</svg>
