<svg width="52" height="32" viewBox="0 0 52 32" fill="none" xmlns="http://www.w3.org/2000/svg">
<g clip-path="url(#clip0_4027_448)">
<path d="M48.0344 4.02429C48.0344 4.06132 48.0344 4.10761 48.0249 4.13539C47.9776 4.49644 47.9776 4.85749 48.0059 5.22781C48.0249 5.32039 48.0438 5.41297 48.1196 5.48703C48.2427 5.62589 48.432 5.59812 48.5078 5.43148C48.5457 5.34816 48.5457 5.26484 48.5267 5.18152C48.432 4.82972 48.4131 4.45941 48.4036 4.09835C48.4036 4.07984 48.4036 4.05206 48.4036 4.02429C48.5078 4.01503 48.6025 4.00577 48.6877 4.00577C48.754 3.99652 48.8108 3.98726 48.8582 3.95948C49.0001 3.88543 49.0001 3.72804 48.8486 3.65398C48.7918 3.6262 48.7161 3.61694 48.6498 3.61694C48.4131 3.6262 48.1764 3.6262 47.9397 3.6262C47.8545 3.6262 47.7692 3.63546 47.684 3.64472C47.6366 3.65398 47.5798 3.65398 47.542 3.68175C47.4757 3.70952 47.4379 3.75581 47.4379 3.82061C47.4473 3.88543 47.4757 3.92245 47.542 3.95023C47.5798 3.978 47.6272 3.98726 47.6745 3.98726C47.7882 3.99652 47.9113 4.01503 48.0344 4.02429ZM50.6382 4.45015C50.6382 4.45941 50.6477 4.46867 50.6477 4.46867C50.6856 4.71863 50.7234 4.95933 50.7518 5.20003C50.7613 5.28335 50.7708 5.35742 50.8276 5.42222C50.9507 5.5796 51.1401 5.56109 51.2252 5.39445C51.2631 5.31113 51.2726 5.22781 51.2537 5.13523C51.1969 4.85749 51.1684 4.57976 51.1116 4.31128C51.0737 4.14464 51.0265 3.98726 50.9791 3.83914C50.9507 3.74656 50.8844 3.68175 50.7708 3.67249C50.6572 3.65398 50.5719 3.70952 50.5246 3.79285C50.4678 3.8669 50.4204 3.94097 50.3825 4.02429C50.3163 4.17242 50.2595 4.32054 50.1838 4.45941C50.1742 4.49644 50.1648 4.52422 50.1459 4.55198C50.1364 4.53347 50.1269 4.52422 50.1269 4.52422C50.0038 4.29277 49.8902 4.06132 49.7671 3.83914C49.7481 3.82061 49.7387 3.8021 49.7292 3.78359C49.6724 3.70027 49.6062 3.65398 49.502 3.65398C49.4073 3.66323 49.3315 3.71878 49.2842 3.8021C49.2653 3.83914 49.2653 3.8669 49.2558 3.90394C49.2179 4.20019 49.1706 4.49644 49.1327 4.79269C49.1138 4.95933 49.1043 5.12597 49.1043 5.29261C49.0948 5.32964 49.1043 5.37593 49.1232 5.41297C49.1422 5.48702 49.199 5.53332 49.2747 5.54257C49.3694 5.55183 49.4357 5.52406 49.4641 5.44999C49.4925 5.39445 49.502 5.34816 49.5115 5.30187C49.5494 5.13523 49.5777 4.97785 49.6062 4.82047C49.6251 4.72789 49.6345 4.65382 49.663 4.55198C49.6819 4.58902 49.7008 4.61679 49.7198 4.64456C49.805 4.75566 49.8902 4.86675 49.9944 4.95933C50.0985 5.03339 50.1838 5.02414 50.2689 4.94081C50.2879 4.9223 50.2974 4.91304 50.3163 4.89452C50.4015 4.76492 50.5057 4.63531 50.5909 4.50569C50.6098 4.48718 50.6193 4.46867 50.6382 4.45015Z" fill="white"/>
<path d="M28.8213 4.20602C28.7554 4.38196 28.7429 4.50872 28.7733 4.61408C28.8068 4.75734 28.8939 4.80424 29.0122 4.76781C30.1243 4.49891 32.5631 5.26215 33.466 5.47487C33.6789 5.51954 33.8522 5.25077 33.7069 5.0098C33.4948 4.77645 31.0571 3.77734 30.127 3.72287C29.7624 3.70272 29.1106 3.61132 28.8213 4.20602Z" fill="white"/>
<path d="M38.3524 0.972002C38.4709 1.03889 38.5372 1.1027 38.5699 1.17399C38.6186 1.26751 38.5929 1.33221 38.511 1.36523C37.7759 1.71604 36.7976 3.22635 36.4027 3.74724C36.307 3.86707 36.0862 3.79743 36.0529 3.60038C36.0597 3.37757 36.9269 1.73855 37.4109 1.29214C37.6011 1.11784 37.9153 0.775858 38.3524 0.972002Z" fill="white"/>
<path d="M32.4979 0.228485C32.6403 0.123551 32.7883 0.0867789 32.8639 0.154973C33.9731 1.08245 34.5613 2.5512 34.9255 3.89581C34.9392 3.92714 34.9401 3.97209 34.9291 4.01899C34.9245 4.05907 34.8946 4.10141 34.847 4.13417C34.7962 4.17034 34.7525 4.18136 34.7319 4.15019C34.2458 3.50369 31.4692 0.988274 32.4979 0.228485Z" fill="white"/>
<path d="M9.00942 16.3087C9.27526 16.1152 9.56427 15.9541 9.8701 15.8291C10.1901 15.7396 10.5311 15.7544 10.8417 15.8714C11.1522 15.9883 11.4155 16.2009 11.5915 16.477C11.7489 16.7525 11.8105 17.0705 11.767 17.3832C11.7235 17.6958 11.5774 17.9862 11.3504 18.2106C11.1745 18.3925 10.9748 18.5509 10.7566 18.6819C9.78406 19.2962 8.80284 19.8768 7.82167 20.4911C7.6209 20.6449 7.40791 20.7828 7.18475 20.9035C6.84531 21.069 6.45738 21.1133 6.08804 21.0288C5.71871 20.9444 5.3912 20.7363 5.16214 20.4407C4.99091 20.2314 4.8464 20.0025 4.73179 19.759C3.80226 17.8488 2.83829 15.9469 1.94318 14.0029C1.53004 13.1614 1.19438 12.1936 0.867317 11.2595C0.725816 10.9881 0.698184 10.6735 0.790305 10.3825C0.882426 10.0914 1.08703 9.84705 1.3606 9.70124C1.63417 9.55544 1.95511 9.51978 2.25518 9.60178C2.55525 9.68377 2.81077 9.877 2.96739 10.1403C3.44879 10.7658 3.87494 11.4303 4.24121 12.1264C5.17075 13.8094 6.05726 15.4924 6.95237 17.125C7.00449 17.2152 7.06196 17.3023 7.1245 17.3859C7.79823 17.1089 8.4319 16.7468 9.00942 16.3087Z" fill="white"/>
<path d="M18.6204 15.7216C16.4945 18.1535 12.9313 17.5392 11.141 14.4087C9.8672 12.1871 9.64344 8.51803 12.4149 6.20383C13.0067 5.71933 13.7143 5.38928 14.4719 5.24448C15.4007 5.11428 16.3478 5.2745 17.1779 5.70222C18.008 6.12995 18.6786 6.80328 19.0938 7.62602C20.6086 10.3189 20.3934 13.7523 18.6204 15.7216ZM17.7597 10.0496C17.5338 9.38787 17.0808 8.82292 16.4773 8.45068C16.1358 8.2127 15.7208 8.097 15.3023 8.12305C14.8837 8.14911 14.4872 8.31534 14.1793 8.59374C12.9485 9.66252 12.6902 12.1955 13.5854 13.7019C13.6995 13.9475 13.867 14.1658 14.0764 14.3415C14.2858 14.5172 14.5319 14.646 14.7976 14.7189C15.0632 14.7919 15.3419 14.8072 15.6142 14.7638C15.8865 14.7203 16.1458 14.6193 16.374 14.4676C17.0412 13.9619 17.5307 13.2655 17.7743 12.4752C18.0181 11.6849 18.004 10.8401 17.7339 10.0581L17.7597 10.0496Z" fill="#3A3B7B"/>
<path d="M27.296 11.1099C27.0784 11.1557 26.8535 11.1584 26.6348 11.118C26.4161 11.0775 26.2077 10.9947 26.0222 10.8743C25.8599 10.7835 25.7202 10.6587 25.613 10.5088C25.506 10.3589 25.4343 10.1877 25.403 10.0074C25.3717 9.82715 25.3817 9.64237 25.4322 9.46632C25.4827 9.29027 25.5726 9.12736 25.6952 8.98928C25.9088 8.71182 26.2121 8.51318 26.5559 8.42548C27.4533 8.17083 28.3771 8.01557 29.3101 7.96266C29.5151 7.93934 29.7227 7.95631 29.9208 8.01254C30.1191 8.06884 30.3037 8.16318 30.4641 8.29021C30.6244 8.41718 30.7572 8.57424 30.8546 8.7521C30.952 8.92995 31.0121 9.12505 31.0314 9.32593C31.3004 10.3126 31.3298 11.3472 31.1175 12.347C30.3429 15.5785 27.6747 16.6893 24.6795 15.6542C23.8388 15.3775 23.1016 14.8618 22.5623 14.1731C21.8429 13.3438 21.3329 12.3609 21.0733 11.3035C20.8629 10.3619 20.886 9.3849 21.1405 8.45385C21.395 7.52279 21.8737 6.66475 22.5364 5.95139C23.1654 5.17605 23.9818 4.56585 24.912 4.17576C25.4997 3.85899 26.1875 3.76892 26.8399 3.9233C26.9879 3.96334 27.1222 4.04137 27.229 4.14929C27.3357 4.25721 27.411 4.39108 27.447 4.53704C27.483 4.68299 27.4784 4.8357 27.4337 4.97934C27.389 5.12297 27.3058 5.2523 27.1928 5.3539C26.9778 5.54413 26.7443 5.71325 26.4956 5.85882C25.7304 6.33526 25.0645 6.94919 24.5332 7.66809C24.185 8.13329 23.9451 8.6675 23.8306 9.23304C23.7161 9.79857 23.7297 10.3818 23.8705 10.9417C24.0657 11.7051 24.4989 12.3903 25.1099 12.9024C27.0034 14.5855 29.465 12.9613 29.0346 10.6639C28.4064 10.8154 27.8555 10.9753 27.296 11.1099Z" fill="#3A3B7B"/>
<path d="M38.8637 15.8562C36.0665 17.5393 32.882 15.8562 32.1848 12.3218C31.677 9.79725 32.641 6.26281 36.0149 4.91636C36.7327 4.63605 37.5114 4.53763 38.2785 4.63024C39.2002 4.79521 40.0457 5.23885 40.6957 5.89863C41.3458 6.5584 41.7678 7.40101 41.9019 8.30774C42.47 11.312 41.179 14.5182 38.8637 15.8562ZM39.8364 10.1927C39.8355 9.49366 39.5826 8.81719 39.122 8.28248C38.8758 7.95174 38.5199 7.71478 38.1149 7.61192C37.7099 7.50913 37.2811 7.54681 36.9014 7.71867C35.3866 8.35819 34.3193 10.6808 34.7066 12.3892C34.7362 12.6573 34.8253 12.9158 34.9677 13.1467C35.1101 13.3776 35.3024 13.5753 35.5312 13.726C35.7598 13.8767 36.0195 13.9767 36.2918 14.0191C36.5642 14.0614 36.8427 14.0451 37.1079 13.9712C37.9086 13.6977 38.6019 13.1866 39.091 12.5092C39.5802 11.8318 39.8408 11.0219 39.8364 10.1927Z" fill="#3A3B7B"/>
<path d="M44.7307 16.5631C44.6885 16.8711 44.5229 17.1501 44.2703 17.3387C44.0176 17.5272 43.6987 17.61 43.3837 17.5687C43.0687 17.5274 42.7834 17.3654 42.5905 17.1184C42.3976 16.8715 42.313 16.5597 42.3552 16.2517C42.3975 15.9437 42.5631 15.6647 42.8157 15.4761C43.0683 15.2875 43.3872 15.2048 43.7022 15.2461C44.0172 15.2874 44.3025 15.4493 44.4955 15.6963C44.6883 15.9433 44.773 16.2551 44.7307 16.5631ZM43.9819 5.2108C44.1456 4.96637 44.3857 4.78022 44.6665 4.68013C44.9472 4.58003 45.2536 4.57136 45.5398 4.6554C45.8307 4.72657 46.0878 4.89332 46.268 5.12771C46.4482 5.36211 46.5405 5.64991 46.5296 5.94294C46.4916 6.41296 46.4197 6.87977 46.3144 7.33986C46.0304 8.89672 45.7549 10.4535 45.4537 11.9936C45.316 12.6079 45.1353 13.1969 44.9373 13.8196C44.8684 14.0143 44.7534 14.1902 44.6016 14.333C44.5073 14.4404 44.3868 14.5228 44.2513 14.5725C44.1157 14.6223 43.9696 14.6378 43.8263 14.6177C43.683 14.5975 43.5471 14.5424 43.4314 14.4574C43.3157 14.3723 43.2239 14.26 43.1643 14.131C43.062 13.8996 43.0064 13.651 43.0007 13.3989C43.0007 12.3554 43.0007 11.3035 43.0696 10.2515C43.1866 8.75034 43.4167 7.25958 43.7581 5.79146C43.7983 5.59477 43.8741 5.40667 43.9819 5.23605V5.2108Z" fill="#3A3B7B"/>
<path fill-rule="evenodd" clip-rule="evenodd" d="M5.3731 23.3254C5.27148 23.5472 5.24361 23.7945 5.29327 24.0325C5.32631 24.3462 5.39887 24.6548 5.50931 24.9511C5.64718 25.3141 5.80147 25.6729 5.99171 26.1153C6.03546 26.217 6.08118 26.3233 6.12902 26.4351C6.38556 27.0343 6.70746 27.8002 7.13682 28.9085C7.25835 29.2234 7.36627 29.5408 7.47495 29.8604C7.51885 29.9896 7.5629 30.1191 7.608 30.249C7.76966 30.7106 8.04781 31.1254 8.41651 31.4541C8.57307 31.6348 8.78073 31.7664 9.01359 31.8322C9.25099 31.8994 9.50348 31.8951 9.73835 31.8201C9.97323 31.7449 10.1795 31.6024 10.3304 31.4111C10.4784 31.2235 10.5664 30.9974 10.5835 30.7612C10.6795 30.3012 10.6467 29.8241 10.4885 29.3806C10.2374 28.6441 9.95136 27.9066 9.62149 27.1852L9.61998 27.182C9.07732 26.0534 8.52572 24.9326 7.94802 23.8113L7.94369 23.8035C7.77457 23.5114 7.55479 23.2502 7.29422 23.0318C7.12506 22.8368 6.89172 22.7053 6.63404 22.66C6.37086 22.6137 6.09943 22.6604 5.86821 22.7916C5.64947 22.9138 5.47608 23.1007 5.3731 23.3254Z" fill="#3A3B7B"/>
<path fill-rule="evenodd" clip-rule="evenodd" d="M13.6612 20.5464C12.8104 20.3309 11.9218 20.2995 11.0573 20.4544C10.3878 20.5189 9.72927 20.6699 9.27201 20.969C9.03944 21.1212 8.85141 21.3167 8.74683 21.5651C8.64166 21.815 8.62823 22.1006 8.71442 22.419C8.87177 23.002 9.07611 23.5689 9.27973 24.134L9.31272 24.2256L9.31351 24.2276C9.92661 25.8693 10.5456 27.5054 11.1701 29.1359C11.243 29.3928 11.346 29.6407 11.4771 29.8745L11.4795 29.8788C11.6527 30.1693 11.8748 30.429 12.1364 30.6472C12.2673 30.7672 12.4291 30.8502 12.6046 30.8873C12.7818 30.9247 12.9661 30.9139 13.1373 30.8558C13.3087 30.7979 13.4604 30.695 13.5761 30.5585C13.6898 30.4241 13.7643 30.2623 13.7917 30.0901C13.9046 29.6222 13.8684 29.1317 13.6879 28.6845C13.6316 28.534 13.5875 28.3802 13.5409 28.2183C13.5254 28.1643 13.5097 28.1094 13.4931 28.0534C14.9227 27.507 16.4439 26.7723 16.9789 25.0631C17.1883 24.4724 17.2058 23.8328 17.0288 23.232C16.8517 22.6305 16.4883 22.0974 15.9886 21.706C15.3086 21.1582 14.5143 20.7623 13.6612 20.5464ZM11.3027 22.6429C11.3309 22.6349 11.3593 22.6276 11.3877 22.6207C12.3185 22.4776 13.2707 22.6683 14.0692 23.1574C14.4211 23.3966 14.5652 23.6625 14.59 23.9183C14.6155 24.1817 14.5176 24.4671 14.3208 24.7414C13.949 25.2597 13.2705 25.6745 12.6576 25.7518C12.2108 24.7458 11.7571 23.699 11.3027 22.6429Z" fill="#3A3B7B"/>
<path d="M19.3339 18.705C20.3471 18.2474 21.6023 18.1684 22.5844 18.4901C22.8318 18.5605 23.0464 18.7129 23.1916 18.9211C23.3358 19.1281 23.4023 19.3775 23.3801 19.6268C23.3786 19.7886 23.338 19.9478 23.2616 20.0915C23.1838 20.2377 23.0711 20.3635 22.9331 20.4582C22.7951 20.5528 22.6358 20.6136 22.4687 20.6354C22.3015 20.6572 22.1315 20.6393 21.9729 20.5832L21.9609 20.5789L21.9495 20.5731C21.8684 20.5316 21.7822 20.5003 21.6931 20.4799L21.6875 20.4787C20.9965 20.2993 20.3448 20.5966 20.1068 20.9619C19.9932 21.1361 19.9792 21.3119 20.0737 21.4719C20.175 21.6431 20.4234 21.8354 20.926 21.9724C21.0642 22.0095 21.2059 22.0453 21.3496 22.0816C21.747 22.1823 22.16 22.2868 22.5594 22.4316L22.5609 22.4322C24.4034 23.1176 25.0895 24.5372 24.8546 25.8724C24.6222 27.1928 23.4944 28.3945 21.7984 28.6779C21.1813 28.8117 20.539 28.7856 19.9352 28.6023C19.3299 28.4185 18.7843 28.0831 18.3526 27.6292L18.3413 27.6174C18.205 27.4464 18.1134 27.2455 18.0727 27.0323C18.0353 26.84 18.055 26.6412 18.1294 26.4594C18.2033 26.2786 18.3283 26.1222 18.4896 26.0082C18.6601 25.879 18.8655 25.8015 19.0805 25.7854C19.2948 25.7693 19.5093 25.8148 19.6974 25.9163C19.8854 26.0051 20.0602 26.1183 20.2171 26.253L20.2201 26.2555C20.4977 26.5037 20.8336 26.5684 21.1556 26.5085C21.4824 26.4477 21.7897 26.2586 21.9873 26.0078C22.1836 25.7586 22.2624 25.4625 22.1689 25.1751C22.0748 24.8856 21.7918 24.5612 21.1699 24.29C21.0074 24.2225 20.8388 24.1681 20.6635 24.1151C20.6162 24.1008 20.5682 24.0866 20.5195 24.0722C20.3899 24.0337 20.2565 23.9941 20.1257 23.9504C20.0356 23.9204 19.9462 23.8919 19.8578 23.8637C19.6159 23.7867 19.3801 23.7116 19.1531 23.6109C18.6592 23.4465 18.2325 23.1308 17.9365 22.7105C17.6392 22.2885 17.4897 21.7839 17.51 21.272C17.5116 20.0245 18.3152 19.165 19.3339 18.705Z" fill="#3A3B7B"/>
<path d="M32.18 18.5719C31.9835 18.478 31.7663 18.4335 31.5478 18.4422C31.3294 18.451 31.1166 18.5128 30.9287 18.6222C30.742 18.7307 30.5856 18.8828 30.4736 19.0647C30.3709 19.218 30.2998 19.3893 30.2643 19.5693C30.2289 19.7491 30.2298 19.9338 30.2668 20.1132C30.3034 20.3438 30.3439 20.568 30.384 20.789C30.4503 21.1549 30.5149 21.5126 30.5575 21.8772L30.559 21.8865C30.656 22.4584 30.7067 23.0367 30.7113 23.6163L30.7117 23.6246C30.7448 24.2505 30.5267 24.8643 30.1041 25.3356L30.0974 25.344C29.9599 25.5163 29.776 25.6478 29.5663 25.7238C29.3567 25.7998 29.1297 25.8173 28.9104 25.7743C28.6912 25.7312 28.4886 25.6295 28.3252 25.4803C28.1618 25.3311 28.0439 25.1398 27.9851 24.929C27.8595 24.4845 27.7868 24.0274 27.7683 23.5668L27.9829 20.2275C27.986 20.1839 27.9896 20.1391 27.9933 20.0939C28.0015 19.9925 28.0098 19.8892 28.0133 19.7929C28.0184 19.6511 28.014 19.5053 27.9803 19.3673C27.9457 19.2263 27.8799 19.0921 27.7633 18.9778C27.6478 18.8647 27.4919 18.7813 27.2957 18.7245C26.9409 18.6241 26.6409 18.6272 26.391 18.731C26.1409 18.8347 25.9695 19.0273 25.8483 19.2497C25.7279 19.4703 25.6506 19.7315 25.5922 19.993C25.5488 20.1871 25.5139 20.3909 25.4808 20.5848C25.4693 20.6517 25.4581 20.7173 25.4468 20.781L25.4465 20.7829C25.2692 21.8466 25.2165 22.9265 25.2892 24.0019C25.3028 24.583 25.4267 25.1566 25.6548 25.6934C25.9121 26.3861 26.3782 26.9862 26.9915 27.4146C27.6061 27.8438 28.3396 28.0803 29.0947 28.0928C29.8499 28.1053 30.5911 27.8932 31.2202 27.4846C31.8483 27.0765 32.3351 26.4917 32.6162 25.8075C33.0094 24.936 33.194 23.9881 33.1559 23.0362C33.1328 22.3412 33.0941 21.6409 33.0556 20.9442C33.0367 20.6024 33.0179 20.2613 33.001 19.9224C32.9925 19.5825 32.8778 19.2533 32.6724 18.9789C32.5453 18.8055 32.3761 18.6656 32.18 18.5719Z" fill="#3A3B7B"/>
<path d="M39.134 23.808C39.114 23.8328 39.093 23.8584 39.0711 23.885C38.9113 22.9837 38.7632 22.0826 38.6148 21.1801C38.5616 20.8563 38.5082 20.5311 38.4544 20.2069L38.4483 20.1707L38.4287 20.1395C38.3917 20.0806 38.388 20.023 38.388 19.9V19.8857L38.3857 19.8717C38.3456 19.6177 38.2281 19.3813 38.0486 19.1935C37.8696 19.0061 37.6371 18.8758 37.3814 18.8192C37.1261 18.7576 36.8578 18.7712 36.6102 18.8583C36.3634 18.9451 36.1482 19.1011 35.9916 19.3069C35.8614 19.4647 35.7546 19.6398 35.6746 19.8269C35.4931 20.23 35.31 20.634 35.1264 21.0392L35.1232 21.0462C34.6648 22.0576 34.2032 23.0759 33.7552 24.1022L33.7538 24.1055C33.4787 24.7709 33.2516 25.4721 33.0253 26.1711C32.9802 26.3106 32.935 26.45 32.8894 26.5891C32.8077 26.8097 32.772 27.044 32.7843 27.2782C32.7694 27.4879 32.8207 27.6971 32.9314 27.8775C33.0443 28.0615 33.2134 28.2063 33.4149 28.2916C33.6284 28.3831 33.8671 28.4025 34.0932 28.3468C34.3189 28.2912 34.5193 28.1638 34.6628 27.9848C34.8462 27.7643 35.0039 27.5238 35.1325 27.269C35.5121 26.5098 35.8749 25.7414 36.236 24.9763C36.3757 24.6803 36.5115 24.4153 36.666 24.1266C36.6766 24.1622 36.6874 24.1969 36.6986 24.2317C36.8605 24.9286 37.1338 25.5962 37.5083 26.2098C37.5792 26.3398 37.6779 26.4534 37.7978 26.5429C37.919 26.6334 38.059 26.6969 38.2079 26.7292C38.3568 26.7614 38.5111 26.7616 38.6601 26.7296C38.8089 26.6977 38.9493 26.6341 39.0706 26.544L39.3107 26.3683L41.1747 24.8332L41.0644 25.52C40.9131 26.464 40.763 27.4002 40.6035 28.3366C40.4991 28.7517 40.4993 29.1852 40.6039 29.6001C40.6493 29.8336 40.7647 30.0485 40.9357 30.2176C41.108 30.388 41.3288 30.5038 41.5693 30.55C41.8098 30.5961 42.0589 30.5705 42.2844 30.4765C42.5065 30.3839 42.6955 30.229 42.8276 30.0316C43.1349 29.6588 43.3262 29.2074 43.3788 28.7312C43.4579 28.0588 43.5472 27.3772 43.6367 26.6958C43.7397 25.9104 43.8427 25.1252 43.9296 24.3552L43.9299 24.3528C44.0137 23.5098 44.0541 22.6633 44.0513 21.8164C44.0697 21.5487 44.0015 21.2821 43.8563 21.0542C43.7106 20.8255 43.4947 20.6477 43.2397 20.546C42.9743 20.4281 42.6773 20.3966 42.3923 20.4562C42.1091 20.5154 41.8528 20.6613 41.6605 20.8727C41.3167 21.1836 40.9942 21.5163 40.695 21.8686L40.693 21.871C40.3664 22.2689 40.042 22.6746 39.7197 23.0778C39.5237 23.3228 39.3283 23.5673 39.134 23.808Z" fill="#3A3B7B"/>
</g>
<defs>
<clipPath id="clip0_4027_448">
<rect width="50.5263" height="31.7594" fill="white" transform="translate(0.736816 0.120361)"/>
</clipPath>
</defs>
</svg>
